<svg width="491" height="410" viewBox="0 0 491 410" fill="none" xmlns="http://www.w3.org/2000/svg">
<g clip-path="url(#clip0)">
<g opacity="0.5">
<path opacity="0.5" d="M271.086 0.0135338L225.234 296.709L445.181 329.107L491.033 32.4123L271.086 0.0135338Z" fill="url(#paint0_linear)"/>
</g>
<path d="M273.549 2.61217L228.711 292.749L443.062 324.323L487.901 34.1865L273.549 2.61217Z" fill="#F5F5F5"/>
<path d="M437.354 155.429L282.647 132.64L281.232 141.795L435.939 164.584L437.354 155.429Z" fill="#E0E0E0"/>
<path d="M433.817 178.311L279.111 155.523L277.696 164.678L432.402 187.466L433.817 178.311Z" fill="#E0E0E0"/>
<path d="M448.668 82.1959L368.969 70.4561L367.554 79.6111L447.253 91.3509L448.668 82.1959Z" fill="#E0E0E0"/>
<path d="M438.103 104.048L372.467 94.3801L371.052 103.535L436.688 113.203L438.103 104.048Z" fill="#00AFF3"/>
<path d="M411.528 198.435L275.571 178.409L274.156 187.564L410.113 207.59L411.528 198.435Z" fill="#E0E0E0"/>
<path d="M389.234 218.559L272.031 201.294L270.617 210.449L387.819 227.714L389.234 218.559Z" fill="#E0E0E0"/>
<path d="M371.634 239.371L268.495 224.179L267.08 233.334L370.22 248.526L371.634 239.371Z" fill="#E0E0E0"/>
<path d="M396.225 266.4L264.959 247.064L263.544 256.219L394.81 275.555L396.225 266.4Z" fill="#E0E0E0"/>
<path d="M312.994 277.543L261.427 269.947L260.012 279.102L311.579 286.698L312.994 277.543Z" fill="#00AFF3"/>
<g opacity="0.5">
<path opacity="0.5" d="M353.863 83.0481C354.678 77.774 354.079 72.384 352.127 67.4026C350.174 62.4212 346.934 58.0181 342.722 54.6219C338.51 51.2257 333.468 48.9519 328.089 48.0221C322.709 47.0922 317.175 47.5378 312.024 49.3155C306.873 51.0932 302.282 54.1425 298.696 58.1666C295.11 62.1907 292.653 67.0525 291.563 72.2788C290.473 77.5052 290.787 82.9181 292.475 87.9907C294.163 93.0633 297.168 97.6228 301.196 101.225C301.196 101.269 301.196 101.319 301.196 101.363C302.069 102.474 303.158 103.406 304.402 104.103L304.464 103.972C305.739 105.414 311.606 108.286 318.698 109.311H318.855C323.347 109.98 328.338 109.92 332.971 108.286C332.971 108.286 333.021 108.209 333.105 108.067C334.269 107.728 335.368 107.208 336.362 106.526L336.463 106.186C341.066 103.994 345.055 100.743 348.086 96.7125C351.117 92.6819 353.1 87.9926 353.863 83.0481Z" fill="url(#paint1_linear)"/>
</g>
<path d="M352.784 81.785C355.313 65.419 343.774 50.15 327.011 47.6808C310.248 45.2115 294.608 56.477 292.079 72.843C289.549 89.2089 301.088 104.478 317.852 106.947C334.615 109.416 350.255 98.151 352.784 81.785Z" fill="#F5F5F5"/>
<path d="M308.439 87.1868C308.439 87.1868 301.14 86.6989 301.045 99.8441C301.892 100.919 302.949 101.819 304.155 102.492L310.298 89.6481L308.439 87.1868Z" fill="#FDA57D"/>
<path d="M331.909 90.6458C331.909 90.6458 339.051 92.2903 335.155 104.871C334.021 105.657 332.738 106.216 331.382 106.515L329.388 92.4767L331.909 90.6458Z" fill="#FDA57D"/>
<path d="M312.01 66.1589C312.01 66.1589 307.058 75.4285 305.323 74.2335C305.323 74.2335 321.078 92.1752 339.433 79.2548C338.005 75.7626 336.154 72.45 333.92 69.3877L312.01 66.1589Z" fill="#333333"/>
<path d="M337.244 68.9454C338.365 61.692 333.251 54.9247 325.821 53.8303C318.392 52.7359 311.46 57.7288 310.339 64.9823C309.218 72.2357 314.332 79.003 321.762 80.0974C329.191 81.1918 336.123 76.1989 337.244 68.9454Z" fill="#333333"/>
<path opacity="0.1" d="M331.769 90.6238L308.299 87.1703L304.694 96.0124C304.694 96.0124 302.752 100.063 304.065 102.168C305.379 104.273 319.669 110.714 331.578 106.554C332.914 104.251 333.439 101.584 333.072 98.9615C332.482 94.4994 332.808 98.6107 332.808 98.6107L331.769 90.6238Z" fill="black"/>
<path opacity="0.1" d="M332.083 90.6732L308.613 87.2197L305.014 96.0562C305.014 96.0562 303.072 100.107 304.386 102.212C305.699 104.317 319.989 110.758 331.898 106.598C333.234 104.295 333.759 101.628 333.392 99.0054C332.802 94.5433 333.128 98.6546 333.128 98.6546L332.083 90.6732Z" fill="black"/>
<path d="M331.909 90.6458L308.439 87.1923L304.835 96.0343C304.835 96.0343 302.892 100.085 304.206 102.19C305.52 104.295 319.809 110.736 331.719 106.576C333.054 104.273 333.579 101.606 333.212 98.9835C332.622 94.5214 332.948 98.6327 332.948 98.6327L331.909 90.6458Z" fill="#FDD835"/>
<path opacity="0.1" d="M316.806 80.6715L326.195 82.0544L324.916 90.3259C324.767 91.2934 324.23 92.1633 323.423 92.7442C322.617 93.3251 321.607 93.5694 320.616 93.4235L318.695 93.1405C317.704 92.9945 316.813 92.4702 316.218 91.6828C315.623 90.8955 315.373 89.9097 315.522 88.9422L316.801 80.6707L316.806 80.6715Z" fill="black"/>
<path d="M316.852 80.3318L326.24 81.7148L324.962 89.9863C324.813 90.9538 324.275 91.8236 323.469 92.4045C322.663 92.9854 321.653 93.2298 320.662 93.0838L318.746 92.8017C317.755 92.6557 316.864 92.1314 316.269 91.344C315.674 90.5567 315.424 89.5708 315.574 88.6033L316.852 80.3318Z" fill="#FDA57D"/>
<path opacity="0.1" d="M316.676 81.6283C319.531 83.1778 322.859 83.6776 326.059 83.0371L326.233 81.9134L316.845 80.532L316.676 81.6283Z" fill="black"/>
<path d="M336.803 71.7943C337.924 64.5408 332.81 57.7735 325.381 56.6791C317.951 55.5848 311.019 60.5777 309.899 67.8312C308.778 75.0846 313.892 81.8519 321.321 82.9463C328.751 84.0407 335.683 79.0478 336.803 71.7943Z" fill="#FDA57D"/>
<path d="M311.23 62.9192L336.89 66.6961C336.89 66.6961 336.261 56.2808 326.463 55.475C316.665 54.6692 311.23 62.9192 311.23 62.9192Z" fill="#333333"/>
<path d="M311.508 67.491C311.704 66.2247 311.303 65.1157 310.613 65.0141C309.924 64.9125 309.206 65.8566 309.01 67.1229C308.814 68.3892 309.215 69.4981 309.905 69.5998C310.595 69.7014 311.313 68.7572 311.508 67.491Z" fill="#FDA57D"/>
<path d="M337.794 71.365C337.99 70.0987 337.589 68.9898 336.899 68.8881C336.209 68.7865 335.491 69.7307 335.296 70.997C335.1 72.2632 335.5 73.3721 336.19 73.4738C336.88 73.5754 337.598 72.6313 337.794 71.365Z" fill="#FDA57D"/>
<path opacity="0.1" d="M311.191 63.2591L336.85 67.036C336.85 67.036 336.222 56.6207 326.424 55.8149C316.626 55.0091 311.191 63.2591 311.191 63.2591Z" fill="black"/>
<g opacity="0.5">
<path opacity="0.5" d="M220.397 42.6428L0.184282 77.389L49.3585 374.442L269.571 339.695L220.397 42.6428Z" fill="url(#paint2_linear)"/>
</g>
<path d="M217.086 44.3771L3.16404 78.6151L51.785 368.17L265.707 333.932L217.086 44.3771Z" fill="#F5F5F5"/>
<path d="M207.17 174.891L52.7732 199.602L54.3074 208.738L208.704 184.027L207.17 174.891Z" fill="#E0E0E0"/>
<path d="M211.004 197.731L56.6079 222.442L58.1421 231.579L212.538 206.867L211.004 197.731Z" fill="#E0E0E0"/>
<path d="M194.903 101.807L115.364 114.537L116.898 123.674L196.437 110.943L194.903 101.807Z" fill="#E0E0E0"/>
<path d="M191.717 125.771L126.213 136.254L127.747 145.391L193.252 134.907L191.717 125.771Z" fill="#00AFF3"/>
<path d="M196.128 223.565L60.4429 245.281L61.9771 254.418L197.662 232.702L196.128 223.565Z" fill="#E0E0E0"/>
<path d="M181.245 249.395L64.2769 268.115L65.8111 277.252L182.779 258.531L181.245 249.395Z" fill="#E0E0E0"/>
<path d="M171.045 274.484L68.1122 290.958L69.6464 300.095L172.579 283.621L171.045 274.484Z" fill="#E0E0E0"/>
<path d="M202.95 292.826L71.9476 313.793L73.4818 322.929L204.485 301.963L202.95 292.826Z" fill="#E0E0E0"/>
<path d="M127.25 328.398L75.7864 336.635L77.3206 345.772L128.784 337.535L127.25 328.398Z" fill="#00AFF3"/>
<g opacity="0.5">
<path opacity="0.5" d="M107.827 129.073C106.918 123.662 104.589 118.573 101.068 114.302C97.5468 110.03 92.9528 106.721 87.7333 104.697C82.5138 102.673 76.8464 102.003 71.2828 102.751C65.7192 103.5 60.4488 105.642 55.9846 108.969C51.5204 112.296 48.0144 116.694 45.8078 121.737C43.6013 126.779 42.7694 132.293 43.393 137.742C44.0166 143.191 46.0745 148.39 49.3665 152.832C52.6585 157.275 57.0724 160.809 62.1786 163.092L62.2235 163.229C63.4369 164.042 64.8033 164.612 66.2438 164.907V164.759C67.9563 165.778 74.6267 166.781 81.8979 165.597H82.0551C86.6649 164.868 91.5273 163.268 95.5307 160.242C95.5307 160.242 95.5307 160.154 95.5869 159.99C96.616 159.3 97.5242 158.452 98.2763 157.479C98.2763 157.355 98.2763 157.234 98.2763 157.117C102.08 153.55 104.937 149.133 106.601 144.247C108.265 139.361 108.686 134.153 107.827 129.073Z" fill="url(#paint3_linear)"/>
</g>
<path d="M80.836 164.602C98.034 161.849 109.69 146.007 106.871 129.216C104.051 112.426 87.8242 101.046 70.6262 103.799C53.4282 106.551 41.7721 122.394 44.5914 139.184C47.4108 155.974 63.638 167.354 80.836 164.602Z" fill="#F5F5F5"/>
<path d="M64.2449 148.253C64.2449 148.253 56.9456 150.035 61.1006 162.917C62.277 163.712 63.6034 164.271 65.0029 164.561L66.8614 150.101L64.2449 148.253Z" fill="#4D8AF0"/>
<path d="M88.3213 144.4C88.3213 144.4 95.8395 143.802 96.0922 157.32C95.2337 158.428 94.1594 159.359 92.931 160.061L86.4403 146.938L88.3213 144.4Z" fill="#4D8AF0"/>
<path d="M74.9606 137.197C82.5835 135.977 87.7499 128.955 86.5003 121.513C85.2506 114.071 78.0581 109.027 70.4353 110.247C62.8125 111.467 57.646 118.489 58.8957 125.931C60.1453 133.373 67.3379 138.417 74.9606 137.197Z" fill="#333333"/>
<path d="M88.1809 144.421L64.1045 148.259L63.4363 158.022C63.4363 158.022 62.8749 162.588 64.812 164.238C66.7491 165.888 82.8468 167.79 93.1163 160.028C93.6784 157.363 93.3293 154.592 92.1225 152.14C90.1012 147.957 91.7463 151.877 91.7463 151.877L88.1809 144.421Z" fill="#4D8AF0"/>
<path d="M88.501 144.372L64.4246 148.209L63.7564 157.972C63.7564 157.972 63.1949 162.539 65.132 164.189C67.0691 165.839 83.1669 167.741 93.4364 159.979C93.9985 157.314 93.6493 154.543 92.4426 152.09C90.4212 147.908 92.0664 151.827 92.0664 151.827L88.501 144.372Z" fill="#4D8AF0"/>
<path d="M88.3213 144.4L64.2449 148.237L63.5767 158.016C63.5767 158.016 63.0152 162.582 64.9524 164.232C66.8895 165.882 82.9872 167.785 93.2567 160.022C93.8188 157.358 93.4697 154.587 92.2629 152.134C90.2415 147.952 91.8867 151.871 91.8867 151.871L88.3213 144.4Z" fill="#4D8AF0"/>
<path opacity="0.1" d="M70.3278 139.265L79.9578 137.723L81.3993 146.308C81.5614 147.274 81.3241 148.263 80.7394 149.057C80.1547 149.852 79.2706 150.387 78.2816 150.546L76.1041 150.894C75.1151 151.052 74.1022 150.821 73.2882 150.25C72.4743 149.679 71.9259 148.816 71.7637 147.85L70.3222 139.265L70.3278 139.265Z" fill="black"/>
<path d="M70.2703 138.916L79.9004 137.375L81.3419 145.96C81.5041 146.925 81.2667 147.914 80.682 148.709C80.0973 149.504 79.2132 150.039 78.2242 150.197L76.0467 150.546C75.0577 150.704 74.0448 150.472 73.2308 149.902C72.4168 149.331 71.8685 148.468 71.7063 147.502L70.2648 138.917L70.2703 138.916Z" fill="#FDA57D"/>
<path opacity="0.1" d="M70.5054 140.272C73.7991 140.909 77.2175 140.372 80.1405 138.759L79.9439 137.602L70.3145 139.148L70.5054 140.272Z" fill="black"/>
<path d="M75.456 140.123C83.0788 138.903 88.2453 131.881 86.9957 124.439C85.746 116.997 78.5535 111.953 70.9307 113.173C63.3079 114.393 58.1414 121.415 59.3911 128.857C60.6407 136.299 67.8332 141.343 75.456 140.123Z" fill="#FDA57D"/>
<path opacity="0.1" d="M59.1859 123.991L85.5139 119.781C85.5139 119.781 81.5217 109.761 71.6845 112.019C61.8473 114.277 59.1859 123.991 59.1859 123.991Z" fill="black"/>
<path d="M59.1242 123.646L85.4746 119.43C85.4746 119.43 81.4824 109.41 71.6452 111.668C61.808 113.927 59.1242 123.646 59.1242 123.646Z" fill="#333333"/>
<path d="M60.1363 131.396C60.8485 131.284 61.2509 130.136 61.0351 128.832C60.8193 127.528 60.0669 126.563 59.3547 126.675C58.6425 126.787 58.2401 127.935 58.4559 129.239C58.6717 130.543 59.424 131.509 60.1363 131.396Z" fill="#FDA57D"/>
<path d="M86.9356 126.27C87.6455 126.157 88.0441 125.011 87.8259 123.712C87.6077 122.412 86.8553 121.451 86.1453 121.564C85.4353 121.678 85.0367 122.823 85.2549 124.123C85.4732 125.423 86.2256 126.384 86.9356 126.27Z" fill="#FDA57D"/>
<g opacity="0.5">
<path opacity="0.5" d="M381.129 90.7061H158.692V390.759H381.129V90.7061Z" fill="url(#paint4_linear)"/>
</g>
<path d="M378.299 92.9152H161.522V386.335H378.299V92.9152Z" fill="white"/>
<g opacity="0.5">
<path opacity="0.5" d="M190.472 160.05C190.472 154.444 191.96 148.933 194.789 144.054C197.618 139.176 201.693 135.095 206.616 132.21C211.54 129.325 217.145 127.733 222.885 127.59C228.626 127.447 234.306 128.757 239.374 131.393C244.442 134.029 248.725 137.902 251.805 142.633C254.886 147.364 256.659 152.794 256.953 158.392C257.247 163.991 256.051 169.569 253.481 174.583C250.912 179.597 247.057 183.876 242.291 187.004V187.146C241.205 188.164 239.922 188.961 238.518 189.492L238.473 189.35C236.918 190.654 230.36 192.743 222.825 192.721H222.662C217.889 192.721 212.712 191.899 208.153 189.492C208.153 189.492 208.114 189.405 208.052 189.246C206.897 188.715 205.837 188.006 204.913 187.146L204.863 186.779C200.424 183.796 196.795 179.805 194.288 175.149C191.781 170.492 190.471 165.31 190.472 160.05Z" fill="url(#paint5_linear)"/>
</g>
<path d="M223.728 191.548C241.547 191.548 255.991 177.446 255.991 160.05C255.991 142.654 241.547 128.552 223.728 128.552C205.91 128.552 191.466 142.654 191.466 160.05C191.466 177.446 205.91 191.548 223.728 191.548Z" fill="#F5F5F5"/>
<path d="M211.073 172.049C211.073 172.049 203.386 172.658 205.419 186.362C206.473 187.349 207.717 188.123 209.079 188.637L213.403 174.346L211.073 172.049Z" fill="#BE7C5E"/>
<path d="M236.019 172.049C236.019 172.049 243.706 172.658 241.674 186.362C240.619 187.349 239.375 188.123 238.013 188.637L233.706 174.302L236.019 172.049Z" fill="#BE7C5E"/>
<path d="M211.404 149.635C211.404 149.635 210.814 151.317 209.972 153.263C208.142 157.517 210.23 173.864 214.61 175.607C219.523 177.564 225.986 178.814 232.695 176.424C238.529 174.346 240.326 155.741 236.205 151.208C235.722 150.66 235.216 150.15 234.689 149.635H211.404Z" fill="#333333"/>
<path d="M223.751 162.626C231.649 162.626 238.052 156.375 238.052 148.664C238.052 140.953 231.649 134.702 223.751 134.702C215.853 134.702 209.45 140.953 209.45 148.664C209.45 156.375 215.853 162.626 223.751 162.626Z" fill="#333333"/>
<path opacity="0.1" d="M235.873 172.049H210.927L208.597 181.79C208.597 181.79 207.227 186.302 208.928 188.286C210.629 190.271 226.519 194.782 238.198 188.61C239.215 186.012 239.332 183.16 238.529 180.491C237.199 175.947 238.198 180.168 238.198 180.168L235.873 172.049Z" fill="black"/>
<path opacity="0.1" d="M236.205 172.049H211.247L208.917 181.79C208.917 181.79 207.547 186.302 209.248 188.286C210.949 190.271 226.839 194.782 238.518 188.61C239.535 186.012 239.652 183.16 238.849 180.491C237.519 175.947 238.518 180.168 238.518 180.168L236.205 172.049Z" fill="black"/>
<path d="M236.019 172.049H211.073L208.743 181.79C208.743 181.79 207.373 186.302 209.074 188.286C210.775 190.271 226.665 194.782 238.344 188.61C239.361 186.012 239.478 183.16 238.675 180.491C237.344 175.947 238.344 180.168 238.344 180.168L236.019 172.049Z" fill="#3AD29F"/>
<path opacity="0.1" d="M218.726 163.964H228.703V172.943C228.703 173.921 228.305 174.86 227.596 175.552C226.888 176.243 225.927 176.632 224.924 176.632H222.499C221.497 176.632 220.536 176.243 219.827 175.552C219.118 174.86 218.72 173.921 218.72 172.943V163.964H218.726Z" fill="black"/>
<path d="M218.726 163.602H228.703V172.581C228.703 173.56 228.305 174.498 227.596 175.19C226.888 175.882 225.927 176.27 224.924 176.27H222.499C221.497 176.27 220.536 175.882 219.827 175.19C219.118 174.498 218.72 173.56 218.72 172.581V163.602H218.726Z" fill="#BE7C5E"/>
<path opacity="0.1" d="M218.743 164.983C221.962 166.147 225.501 166.147 228.72 164.983V163.788H218.743V164.983Z" fill="black"/>
<path d="M223.751 165.658C231.649 165.658 238.052 159.407 238.052 151.696C238.052 143.985 231.649 137.734 223.751 137.734C215.853 137.734 209.45 143.985 209.45 151.696C209.45 159.407 215.853 165.658 223.751 165.658Z" fill="#BE7C5E"/>
<path d="M210.073 146.395H237.35C237.35 146.395 235.02 135.64 224.711 136.33C214.402 137.021 210.073 146.395 210.073 146.395Z" fill="#333333"/>
<path d="M209.748 153.538C210.483 153.538 211.078 152.448 211.078 151.104C211.078 149.76 210.483 148.67 209.748 148.67C209.013 148.67 208.417 149.76 208.417 151.104C208.417 152.448 209.013 153.538 209.748 153.538Z" fill="#BE7C5E"/>
<path d="M237.687 153.538C238.422 153.538 239.018 152.448 239.018 151.104C239.018 149.76 238.422 148.67 237.687 148.67C236.952 148.67 236.356 149.76 236.356 151.104C236.356 152.448 236.952 153.538 237.687 153.538Z" fill="#BE7C5E"/>
<path opacity="0.1" d="M210.073 146.751H237.35C237.35 146.751 235.02 135.996 224.711 136.687C214.402 137.377 210.073 146.751 210.073 146.751Z" fill="black"/>
<path d="M346.884 220.146H190.427V229.405H346.884V220.146Z" fill="#E0E0E0"/>
<path d="M346.884 243.29H190.427V252.548H346.884V243.29Z" fill="#E0E0E0"/>
<path d="M346.89 146.088H266.289V155.347H346.89V146.088Z" fill="#E0E0E0"/>
<path d="M339.776 169.232H273.397V178.49H339.776V169.232Z" fill="#00AFF3"/>
<path d="M327.923 266.434H190.427V275.692H327.923V266.434Z" fill="#E0E0E0"/>
<path d="M308.956 289.578H190.427V298.836H308.956V289.578Z" fill="#E0E0E0"/>
<path d="M294.734 312.727H190.427V321.985H294.734V312.727Z" fill="#E0E0E0"/>
<path d="M323.178 335.871H190.427V345.129H323.178V335.871Z" fill="#E0E0E0"/>
<path d="M242.577 359.014H190.427V368.273H242.577V359.014Z" fill="#00AFF3"/>
<g opacity="0.5">
<path opacity="0.5" d="M366.126 410.005C392.295 410.005 413.51 389.294 413.51 363.745C413.51 338.196 392.295 317.485 366.126 317.485C339.957 317.485 318.743 338.196 318.743 363.745C318.743 389.294 339.957 410.005 366.126 410.005Z" fill="url(#paint6_linear)"/>
</g>
<path d="M366.126 407.281C390.754 407.281 410.719 387.789 410.719 363.745C410.719 339.701 390.754 320.209 366.126 320.209C341.498 320.209 321.533 339.701 321.533 363.745C321.533 387.789 341.498 407.281 366.126 407.281Z" fill="#69F0AE"/>
<path d="M346.772 357.935L363.493 372.9L387.182 338.891L395.548 345.694L363.493 386.505L339.804 360.659L346.772 357.935Z" fill="white"/>
</g>
<defs>
<linearGradient id="paint0_linear" x1="335.207" y1="312.908" x2="378.957" y2="15.9032" gradientUnits="userSpaceOnUse">
<stop stop-color="#808080" stop-opacity="0.25"/>
<stop offset="0.54" stop-color="#808080" stop-opacity="0.12"/>
<stop offset="1" stop-color="#808080" stop-opacity="0.1"/>
</linearGradient>
<linearGradient id="paint1_linear" x1="37086.5" y1="45448.9" x2="38111.3" y2="38492.2" gradientUnits="userSpaceOnUse">
<stop stop-color="#808080" stop-opacity="0.25"/>
<stop offset="0.54" stop-color="#808080" stop-opacity="0.12"/>
<stop offset="1" stop-color="#808080" stop-opacity="0.1"/>
</linearGradient>
<linearGradient id="paint2_linear" x1="123547" y1="97956.6" x2="97860.8" y2="-64835.1" gradientUnits="userSpaceOnUse">
<stop stop-color="#808080" stop-opacity="0.25"/>
<stop offset="0.54" stop-color="#808080" stop-opacity="0.12"/>
<stop offset="1" stop-color="#808080" stop-opacity="0.1"/>
</linearGradient>
<linearGradient id="paint3_linear" x1="25488.7" y1="-2450.9" x2="24318.1" y2="-9764.44" gradientUnits="userSpaceOnUse">
<stop stop-color="#808080" stop-opacity="0.25"/>
<stop offset="0.54" stop-color="#808080" stop-opacity="0.12"/>
<stop offset="1" stop-color="#808080" stop-opacity="0.1"/>
</linearGradient>
<linearGradient id="paint4_linear" x1="107086" y1="213981" x2="107086" y2="49740.5" gradientUnits="userSpaceOnUse">
<stop stop-color="#808080" stop-opacity="0.25"/>
<stop offset="0.54" stop-color="#808080" stop-opacity="0.12"/>
<stop offset="1" stop-color="#808080" stop-opacity="0.1"/>
</linearGradient>
<linearGradient id="paint5_linear" x1="33795.4" y1="27982.1" x2="33795.4" y2="20240" gradientUnits="userSpaceOnUse">
<stop stop-color="#808080" stop-opacity="0.25"/>
<stop offset="0.54" stop-color="#808080" stop-opacity="0.12"/>
<stop offset="1" stop-color="#808080" stop-opacity="0.1"/>
</linearGradient>
<linearGradient id="paint6_linear" x1="62113.5" y1="69517.3" x2="62113.5" y2="53902.6" gradientUnits="userSpaceOnUse">
<stop stop-color="#808080" stop-opacity="0.25"/>
<stop offset="0.54" stop-color="#808080" stop-opacity="0.12"/>
<stop offset="1" stop-color="#808080" stop-opacity="0.1"/>
</linearGradient>
<clipPath id="clip0">
<rect width="491" height="410" fill="white"/>
</clipPath>
</defs>
</svg>
